<?xml version="1.0" encoding="UTF-8"?>
<svg id="Layer_1" xmlns="http://www.w3.org/2000/svg" width="1856.3" height="811.4" xmlns:xlink="http://www.w3.org/1999/xlink" version="1.1" viewBox="0 0 1856.3 811.4">
  <!-- Generator: Adobe Illustrator 29.8.2, SVG Export Plug-In . SVG Version: 2.1.1 Build 3)  -->
  <defs>
    <style>
      .st0 {
        fill: #58595b;
      }

      .st1 {
        fill: #ffd576;
      }

      .st2 {
        fill: url(#radial-gradient);
      }

      .st3 {
        fill: #ff9d00;
      }

      .st4 {
        fill: #b2b2b2;
      }
    </style>
    <radialGradient id="radial-gradient" cx="919.9" cy="5912" fx="919.9" fy="5912" r="1019.8" gradientTransform="translate(0 -1406.5) scale(1 .3)" gradientUnits="userSpaceOnUse">
      <stop offset="0" stop-color="#414042"/>
      <stop offset="1" stop-color="#000"/>
    </radialGradient>
  </defs>
  <g>
    <rect class="st2" x="-280.1" y="-10.1" width="2400" height="821.5"/>
    <path d="M416.7,280.8c-249-36.3-295.2-50.1-398.5-27.5,0,0-17,13.3-25.6,41.9-10,33.5,7.4,114.6,7.4,114.6h-280.1v393.7h2400v-393.7h-260.4s-.2-61.4-53.9-92.2c0,0-136.1-34.7-521.9-54.8-257.3-13.4-310.1,9.9-488.7,24.8-185.6,15.5-344.8-1.9-378.4-6.8Z"/>
    <path d="M1128.1,215.5s-35.7-18.5-63.3-37.4c-39.6-27.1-83-50.5-83-50.5,217.9,5.3,321.5,58.5,321.5,58.5,0,0-51.6-35-130.6-63.1-136.1-48.6-347.3-80.2-563.9-63.2-176.1,13.8-275.1,91.9-275.1,91.9,0,0,173.1-75.7,358.5-36.6,105,22.2,149,67.4,149,67.4,0,0-81.9-18.2-264.2-17.1-71.7.5-213.5,9.5-213.5,9.5,0,0,347.9,94.7,764.6,40.6Z"/>
    <g>
      <path class="st3" d="M1332.8,256.6c58.9-.6,158.5,6.7,226.4,17.2,184.3,28.3,246.6,68.1,246.6,68.1-109.6-87-286.3-112.5-380.4-124.5-95.3-12.1-286.1-13.9-395.4-13.8-30.2-20.7-76.2-51.2-109-70.8-75.9-45.6-118.9-65.2-118.9-65.2,0,0,36.6-1,47.4-1.5,109.8-4.9,255,9.5,369.4,52.3,100.2,37.4,119.7,51.6,119.7,51.6,0,0-48.9-45.5-176.4-88.5-143.1-48.3-273.3-50.2-431.9-47.4-93.7-.2-161.1,13.6-211,25.7-87.2,21.1-261.4,81.7-317.2,103-55.8,21.3-168.3,63.4-168.3,63.4,0,0,32.9.3,86.3.8-40.8,23.1-60.6,70.9-60.6,70.9,16.5-22.9,59.1-62.2,108.9-47,58.5,18,97.8,100.5,97.8,100.5-3.8-22.6-19.8-94-61-123.7.3,0,.6,0,.9,0h-.8s365.5,21.2,640,20.8c138.5-.2,216.2-26.5,360.2-4.1,61,9.5,130.7,35.3,171.5,59.1,2.5,11.3,4.2,25.1,13.5,38.8,20.7,30.4,64.4,41.9,96.3,47.8,36,6.6,103.4,12,103.4,12,0,0-91.3-69.8-192.3-115.3-20-9-44-22.1-65.4-30ZM791.2,212.7c-137.9,0-217.8-10.1-247.8-13.7-44.4-5.4-125.4-20-194.9-54.5,0,0,124.2-58.1,231.4-73.6,116.3-16.7,227.9,5.4,378.2,140.6-12.8.1-117.1,1.1-166.9,1.1Z"/>
      <path class="st3" d="M1181.5,300.5c-70.6-23.4-132.9,3.3-148.3,13.4-42.6,27.9-49.2,56.3-49.2,56.3,0,0,24.6-29,67.5-42.6,30.5-9.7,87.2-19.4,146.3,9.3,67.1,32.7,86,72.7,86,72.7,0,0-11.1-78.9-102.3-109.1Z"/>
    </g>
  </g>
  <g>
    <path class="st1" d="M122.5,507.3v133.1h-32.7v-133.1h-42.7v-30.4h118.1v30.4h-42.7Z"/>
    <path class="st1" d="M269.3,475.9c19.1,0,32.3,13.2,32.3,32.3v100.9c0,19.1-13.2,32.3-32.3,32.3h-54.7c-19.1,0-32.3-13.2-32.3-32.3v-100.9c0-19.1,13.2-32.3,32.3-32.3h54.7ZM268.8,514.5c0-5-2.7-7.7-7.7-7.7h-38.4c-5,0-7.7,2.7-7.7,7.7v88.1c0,5,2.7,7.7,7.7,7.7h38.4c5,0,7.7-2.7,7.7-7.7v-88.1Z"/>
    <path class="st1" d="M419,640.4l-26.3-60.6h-26.3v60.6h-32.7v-163.5h83.4c19.1,0,32.3,13.2,32.3,32.3v38.4c0,15.4-8.6,27-22.3,30.9l27.3,62h-35.2ZM416.5,515.5c0-5-2.7-7.7-7.7-7.7h-42.5v41.6h42.5c5,0,7.7-2.7,7.7-7.7v-26.1Z"/>
    <path class="st1" d="M565.3,475.9c19.1,0,32.3,13.2,32.3,32.3v100.9c0,19.1-13.2,32.3-32.3,32.3h-11.4v28.2h-32.7v-28.2h-11.6c-19.1,0-32.3-13.2-32.3-32.3v-100.9c0-19.1,13.2-32.3,32.3-32.3h55.6ZM564.8,515c0-5-2.7-7.7-7.7-7.7h-39.3c-5,0-7.7,2.7-7.7,7.7v87.2c0,5,2.7,7.7,7.7,7.7h39.3c5,0,7.7-2.7,7.7-7.7v-87.2Z"/>
    <path class="st1" d="M743.8,609c0,19.1-13.2,32.3-32.3,32.3h-52.2c-19.1,0-32.3-13.2-32.3-32.3v-132.2h32.7v125.8c0,5,2.7,7.7,7.7,7.7h35.9c5,0,7.7-2.7,7.7-7.7v-125.8h32.7v132.2Z"/>
    <path class="st1" d="M884.2,476.8v30.9h-74.3v33.6h60.2v30.9h-60.2v37.3h74.3v30.9h-107v-163.5h107Z"/>
    <path class="st1" d="M1030.7,507.3v133.1h-32.7v-133.1h-42.7v-30.4h118.1v30.4h-42.7Z"/>
    <path class="st1" d="M1097,476.8h32.7v64.5h56.3v-64.5h32.7v163.5h-32.7v-68.1h-56.3v68.1h-32.7v-163.5Z"/>
    <path class="st1" d="M1361.6,476.8v30.9h-74.3v33.6h60.2v30.9h-60.2v37.3h74.3v30.9h-107v-163.5h107Z"/>
    <path class="st1" d="M1471.8,475.9c19.1,0,32.3,13.2,32.3,32.3v100.9c0,19.1-13.2,32.3-32.3,32.3h-54.7c-19.1,0-32.3-13.2-32.3-32.3v-100.9c0-19.1,13.2-32.3,32.3-32.3h54.7ZM1471.3,514.5c0-5-2.7-7.7-7.7-7.7h-38.4c-5,0-7.7,2.7-7.7,7.7v88.1c0,5,2.7,7.7,7.7,7.7h38.4c5,0,7.7-2.7,7.7-7.7v-88.1Z"/>
    <path class="st1" d="M1621.5,640.4l-26.3-60.6h-26.3v60.6h-32.7v-163.5h83.4c19.1,0,32.3,13.2,32.3,32.3v38.4c0,15.4-8.6,27-22.3,30.9l27.3,62h-35.2ZM1619,515.5c0-5-2.7-7.7-7.7-7.7h-42.5v41.6h42.5c5,0,7.7-2.7,7.7-7.7v-26.1Z"/>
    <path class="st1" d="M1715.3,640.4v-56.6l-50.4-107h35.9l30.9,70,30.9-70h35.9l-50.4,107v56.6h-32.7Z"/>
  </g>
  <g>
    <path class="st4" d="M552.2,718c-1-1.3-2.3-2.2-3.8-2.9-1.5-.7-3.3-1-5.3-1s-3.8.4-5.5,1.2c-1.7.8-3.2,1.8-4.4,3.2-1.2,1.4-2.2,3-2.9,4.9-.7,1.9-1.1,4-1.1,6.2s.4,4.3,1.1,6.2c.7,1.9,1.7,3.5,2.9,4.9,1.2,1.4,2.7,2.5,4.3,3.2,1.7.8,3.4,1.2,5.3,1.2s4.1-.5,5.8-1.4c1.7-.9,3.1-2.2,4.1-3.8l8.8,6.6c-2,2.9-4.6,5-7.7,6.3s-6.3,2-9.6,2-7.2-.6-10.4-1.8c-3.2-1.2-5.9-2.9-8.2-5.1-2.3-2.2-4.1-4.9-5.4-8-1.3-3.1-1.9-6.6-1.9-10.5s.6-7.3,1.9-10.5c1.3-3.1,3.1-5.8,5.4-8,2.3-2.2,5.1-3.9,8.2-5.1,3.2-1.2,6.6-1.8,10.4-1.8s2.8.1,4.2.4c1.5.2,2.9.6,4.3,1.2s2.8,1.3,4.1,2.2c1.3.9,2.5,2,3.5,3.3l-8.2,6.7Z"/>
    <path class="st4" d="M639.1,735.1c0,2.9-.4,5.5-1.3,7.9-.9,2.4-2.1,4.5-3.8,6.3-1.7,1.8-3.8,3.1-6.4,4.1-2.5,1-5.5,1.5-8.8,1.5s-6.3-.5-8.8-1.5c-2.5-1-4.7-2.4-6.4-4.1-1.7-1.8-3-3.9-3.8-6.3-.9-2.4-1.3-5-1.3-7.9v-29.6h10.6v29.2c0,1.5.2,2.9.7,4.1s1.1,2.4,2,3.3c.9.9,1.9,1.7,3.1,2.2,1.2.5,2.5.8,3.9.8s2.7-.3,3.9-.8c1.2-.5,2.2-1.2,3.1-2.2.9-.9,1.5-2,2-3.3s.7-2.7.7-4.1v-29.2h10.6v29.6Z"/>
    <path class="st4" d="M703.9,717.3c-.9-1.1-2-1.9-3.5-2.4-1.5-.5-2.9-.8-4.2-.8s-1.6,0-2.4.3c-.8.2-1.6.5-2.3.8-.7.4-1.3.9-1.8,1.5-.5.6-.7,1.4-.7,2.3,0,1.5.5,2.6,1.6,3.3,1.1.8,2.5,1.4,4.1,2,1.7.5,3.4,1.1,5.3,1.6,1.9.5,3.7,1.3,5.3,2.3,1.7,1,3,2.3,4.1,4,1.1,1.7,1.6,3.9,1.6,6.7s-.5,5-1.5,7c-1,2-2.3,3.6-4,5-1.7,1.3-3.7,2.3-5.9,2.9s-4.6,1-7.1,1-6-.5-8.7-1.4c-2.7-1-5.2-2.5-7.5-4.6l7.5-8.3c1.1,1.5,2.5,2.6,4.1,3.4,1.7.8,3.4,1.2,5.1,1.2s1.7-.1,2.6-.3c.9-.2,1.7-.5,2.4-.9.7-.4,1.3-.9,1.7-1.6.4-.6.6-1.4.6-2.2,0-1.4-.6-2.6-1.7-3.4-1.1-.8-2.5-1.6-4.2-2.1-1.7-.6-3.5-1.2-5.4-1.8-1.9-.6-3.8-1.4-5.4-2.4-1.7-1-3.1-2.3-4.2-3.9-1.1-1.6-1.7-3.8-1.7-6.5s.5-4.8,1.5-6.8c1-1.9,2.4-3.6,4.1-4.9,1.7-1.3,3.7-2.3,5.9-3,2.2-.7,4.5-1,6.9-1s5.3.4,7.9,1.2c2.5.8,4.8,2.1,6.9,3.9l-7.3,8Z"/>
    <path class="st4" d="M759.7,714.9h-13.7v-9.4h38.1v9.4h-13.7v38.7h-10.6v-38.7Z"/>
    <path class="st4" d="M818.1,729.6c0-3.9.6-7.3,1.9-10.5,1.3-3.1,3.1-5.8,5.4-8,2.3-2.2,5.1-3.9,8.2-5.1,3.2-1.2,6.6-1.8,10.4-1.8s7.2.6,10.4,1.8c3.2,1.2,5.9,2.9,8.2,5.1,2.3,2.2,4.1,4.9,5.4,8,1.3,3.1,1.9,6.6,1.9,10.5s-.6,7.3-1.9,10.5c-1.3,3.1-3.1,5.8-5.4,8-2.3,2.2-5.1,3.9-8.2,5.1-3.2,1.2-6.6,1.8-10.4,1.8s-7.2-.6-10.4-1.8c-3.2-1.2-5.9-2.9-8.2-5.1-2.3-2.2-4.1-4.9-5.4-8-1.3-3.1-1.9-6.6-1.9-10.5ZM829.1,729.6c0,2.3.4,4.3,1.1,6.2.7,1.9,1.7,3.5,3,4.9,1.3,1.4,2.9,2.5,4.7,3.2,1.8.8,3.9,1.2,6.2,1.2s4.3-.4,6.2-1.2c1.8-.8,3.4-1.8,4.7-3.2,1.3-1.4,2.3-3,3-4.9.7-1.9,1.1-4,1.1-6.2s-.4-4.3-1.1-6.2c-.7-1.9-1.7-3.5-3-4.9-1.3-1.4-2.9-2.5-4.7-3.2-1.8-.8-3.9-1.2-6.2-1.2s-4.3.4-6.2,1.2c-1.8.8-3.4,1.8-4.7,3.2-1.3,1.4-2.3,3-3,4.9-.7,1.9-1.1,4-1.1,6.2Z"/>
    <path class="st4" d="M908.5,705.5h16l11.1,31.4h.1l11.1-31.4h16v48.1h-10.6v-36.9h-.1l-12.6,36.9h-8.1l-12.2-36.9h-.1v36.9h-10.6v-48.1Z"/>
    <path class="st4" d="M1086.7,718c-1-1.3-2.3-2.2-3.8-2.9-1.5-.7-3.3-1-5.3-1s-3.8.4-5.5,1.2c-1.7.8-3.2,1.8-4.4,3.2s-2.2,3-2.9,4.9c-.7,1.9-1.1,4-1.1,6.2s.4,4.3,1.1,6.2c.7,1.9,1.7,3.5,2.9,4.9,1.2,1.4,2.7,2.5,4.3,3.2,1.7.8,3.4,1.2,5.3,1.2s4.1-.5,5.8-1.4c1.7-.9,3.1-2.2,4.1-3.8l8.8,6.6c-2,2.9-4.6,5-7.7,6.3s-6.3,2-9.7,2-7.2-.6-10.4-1.8c-3.2-1.2-5.9-2.9-8.2-5.1-2.3-2.2-4.1-4.9-5.4-8-1.3-3.1-1.9-6.6-1.9-10.5s.6-7.3,1.9-10.5c1.3-3.1,3.1-5.8,5.4-8,2.3-2.2,5.1-3.9,8.2-5.1,3.2-1.2,6.6-1.8,10.4-1.8s2.8.1,4.2.4c1.5.2,2.9.6,4.3,1.2,1.4.5,2.8,1.3,4.1,2.2,1.3.9,2.5,2,3.5,3.3l-8.2,6.7Z"/>
    <path class="st4" d="M1148.9,705.5h8.8l20.9,48.1h-12l-4.1-10.2h-18.7l-4,10.2h-11.7l20.8-48.1ZM1153,719.5l-5.8,15h11.8l-5.9-15Z"/>
    <path class="st4" d="M1214.7,705.5h18.6c2.4,0,4.8.2,7,.7,2.2.5,4.1,1.3,5.8,2.4,1.7,1.1,3,2.6,3.9,4.5,1,1.9,1.5,4.2,1.5,7s-.9,6.3-2.7,8.7c-1.8,2.4-4.3,3.9-7.7,4.5l12.2,20.3h-12.7l-10.1-19.2h-5.2v19.2h-10.6v-48.1ZM1225.3,725.4h6.3c1,0,2,0,3-.1,1.1,0,2-.3,2.9-.6s1.6-.9,2.1-1.6c.6-.7.8-1.7.8-3.1s-.2-2.2-.7-2.9c-.5-.7-1.1-1.3-1.9-1.7-.8-.4-1.7-.6-2.7-.8-1-.1-2-.2-2.9-.2h-6.9v10.9Z"/>
    <path class="st4" d="M1313.8,717.3c-.9-1.1-2-1.9-3.5-2.4-1.5-.5-2.9-.8-4.2-.8s-1.6,0-2.4.3c-.8.2-1.6.5-2.3.8-.7.4-1.3.9-1.8,1.5-.5.6-.7,1.4-.7,2.3,0,1.5.5,2.6,1.6,3.3,1.1.8,2.5,1.4,4.1,2,1.7.5,3.4,1.1,5.3,1.6,1.9.5,3.7,1.3,5.3,2.3,1.7,1,3,2.3,4.1,4,1.1,1.7,1.6,3.9,1.6,6.7s-.5,5-1.5,7c-1,2-2.3,3.6-4,5-1.7,1.3-3.7,2.3-5.9,2.9s-4.6,1-7.1,1-6-.5-8.7-1.4c-2.7-1-5.2-2.5-7.5-4.6l7.5-8.3c1.1,1.5,2.5,2.6,4.1,3.4,1.7.8,3.4,1.2,5.1,1.2s1.7-.1,2.6-.3c.9-.2,1.7-.5,2.4-.9.7-.4,1.3-.9,1.7-1.6.4-.6.6-1.4.6-2.2,0-1.4-.6-2.6-1.7-3.4-1.1-.8-2.5-1.6-4.2-2.1-1.7-.6-3.5-1.2-5.4-1.8-1.9-.6-3.8-1.4-5.4-2.4-1.7-1-3.1-2.3-4.2-3.9-1.1-1.6-1.7-3.8-1.7-6.5s.5-4.8,1.5-6.8c1-1.9,2.4-3.6,4.1-4.9,1.7-1.3,3.7-2.3,5.9-3,2.2-.7,4.5-1,6.9-1s5.3.4,7.9,1.2c2.5.8,4.8,2.1,6.9,3.9l-7.3,8Z"/>
  </g>
  <path class="st0" d="M1957.6,1338.8c7.7,0,7.7-12,0-12s-7.7,12,0,12h0Z"/>
</svg>